<?xml version="1.0" encoding="UTF-8"?>

<svg version="1.2" baseProfile="tiny" width="76.2mm" height="50.8mm" viewBox="0 0 7620 5080" preserveAspectRatio="xMidYMid" fill-rule="evenodd" stroke-width="28.222" stroke-linejoin="round" xmlns="http://www.w3.org/2000/svg" xmlns:xlink="http://www.w3.org/1999/xlink" xml:space="preserve">
 <g visibility="visible" id="MasterSlide_1_Default">
  <desc>Master slide
  </desc>
  <rect fill="none" stroke="none" x="0" y="0" width="7620" height="5080"/>
 </g>
 <g visibility="visible" id="Slide_1_page1">
  <g>
   <path fill="rgb(207,231,245)" stroke="none" d="M 3811,4429 L 781,4429 781,619 6840,619 6840,4429 3811,4429 Z"/>
   <path fill="none" stroke="rgb(128,128,128)" id="Drawing_1_0" stroke-linejoin="round" stroke-dasharray="508,508,508,508" d="M 3811,4429 L 781,4429 781,619 6840,619 6840,4429 3811,4429 Z"/>
  </g>
  <g>
   <path fill="rgb(0,0,0)" stroke="none" d="M 6812,2712 C 6783,2712 6758,2705 6733,2691 6708,2676 6690,2658 6675,2633 6661,2608 6654,2583 6654,2555 6654,2526 6661,2501 6675,2476 6690,2451 6708,2433 6733,2418 6758,2404 6783,2397 6812,2397 6840,2397 6865,2404 6890,2418 6915,2433 6933,2451 6948,2476 6962,2501 6969,2526 6969,2555 6969,2583 6962,2608 6948,2633 6933,2658 6915,2676 6890,2691 6865,2705 6840,2712 6812,2712 L 6812,2712 Z"/>
   <path fill="none" stroke="rgb(0,0,0)" id="Drawing_2_0" stroke-linejoin="round" d="M 6812,2712 C 6783,2712 6758,2705 6733,2691 6708,2676 6690,2658 6675,2633 6661,2608 6654,2583 6654,2555 6654,2526 6661,2501 6675,2476 6690,2451 6708,2433 6733,2418 6758,2404 6783,2397 6812,2397 6840,2397 6865,2404 6890,2418 6915,2433 6933,2451 6948,2476 6962,2501 6969,2526 6969,2555 6969,2583 6962,2608 6948,2633 6933,2658 6915,2676 6890,2691 6865,2705 6840,2712 6812,2712 L 6812,2712 Z"/>
  </g>
  <g>
   <path fill="rgb(255,255,255)" stroke="none" d="M 777,2698 C 748,2698 723,2691 698,2677 673,2662 655,2644 640,2619 626,2594 619,2569 619,2541 619,2512 626,2487 640,2462 655,2437 673,2419 698,2404 723,2390 748,2383 776,2383 805,2383 830,2390 855,2404 880,2419 898,2437 913,2462 927,2487 934,2512 934,2541 934,2569 927,2594 913,2619 898,2644 880,2662 855,2677 830,2691 805,2698 777,2698 L 777,2698 Z"/>
   <path fill="none" stroke="rgb(0,0,0)" id="Drawing_3_0" stroke-linejoin="round" d="M 777,2698 C 748,2698 723,2691 698,2677 673,2662 655,2644 640,2619 626,2594 619,2569 619,2541 619,2512 626,2487 640,2462 655,2437 673,2419 698,2404 723,2390 748,2383 776,2383 805,2383 830,2390 855,2404 880,2419 898,2437 913,2462 927,2487 934,2512 934,2541 934,2569 927,2594 913,2619 898,2644 880,2662 855,2677 830,2691 805,2698 777,2698 L 777,2698 Z"/>
  </g>
 </g>
</svg>