<?xml version="1.0" encoding="UTF-8"?>

<svg version="1.2" baseProfile="tiny" width="185.42mm" height="101.6mm" viewBox="0 0 18542 10160" preserveAspectRatio="xMidYMid" fill-rule="evenodd" stroke-width="28.222" stroke-linejoin="round" xmlns="http://www.w3.org/2000/svg" xmlns:xlink="http://www.w3.org/1999/xlink" xml:space="preserve">
 <g visibility="visible" id="MasterSlide_1_Default">
  <desc>Master slide
  </desc>
  <rect fill="none" stroke="none" x="0" y="0" width="18542" height="10160"/>
 </g>
 <g visibility="visible" id="Slide_1_page1">
  <g>
   <path fill="rgb(207,231,245)" stroke="none" d="M 9573,9160 L 2651,9160 2651,619 16494,619 16494,9160 9573,9160 Z"/>
   <path fill="none" stroke="rgb(128,128,128)" id="Drawing_1_0" stroke-linejoin="round" d="M 9573,9160 L 2651,9160 2651,619 16494,619 16494,9160 9573,9160 Z"/>
  </g>
  <g>
   <path fill="rgb(0,0,0)" stroke="none" d="M 2010,6461 C 1728,6461 1489,6405 1245,6281 1001,6157 826,6002 685,5788 544,5573 480,5362 480,5115 480,4867 544,4656 685,4441 826,4227 1001,4072 1245,3948 1489,3824 1728,3768 2010,3768 2292,3768 2531,3824 2775,3948 3019,4072 3194,4227 3335,4441 3476,4656 3540,4867 3540,5114 3540,5362 3476,5573 3335,5788 3194,6002 3019,6157 2775,6281 2531,6405 2292,6461 2010,6461 L 2010,6461 Z"/>
   <path fill="none" stroke="rgb(128,128,128)" id="Drawing_2_0" stroke-linejoin="round" d="M 2010,6461 C 1728,6461 1489,6405 1245,6281 1001,6157 826,6002 685,5788 544,5573 480,5362 480,5115 480,4867 544,4656 685,4441 826,4227 1001,4072 1245,3948 1489,3824 1728,3768 2010,3768 2292,3768 2531,3824 2775,3948 3019,4072 3194,4227 3335,4441 3476,4656 3540,4867 3540,5114 3540,5362 3476,5573 3335,5788 3194,6002 3019,6157 2775,6281 2531,6405 2292,6461 2010,6461 L 2010,6461 Z"/>
  </g>
  <g>
   <path fill="rgb(0,0,0)" stroke="none" d="M 17066,5826 C 16867,5826 16698,5781 16526,5681 16354,5582 16230,5458 16131,5286 16031,5114 15986,4945 15986,4747 15986,4548 16031,4379 16131,4207 16230,4035 16354,3911 16526,3812 16698,3712 16867,3667 17066,3667 17264,3667 17433,3712 17605,3812 17777,3911 17901,4035 18000,4207 18100,4379 18145,4548 18145,4746 18145,4945 18100,5114 18000,5286 17901,5458 17777,5582 17605,5681 17433,5781 17264,5826 17066,5826 L 17066,5826 Z"/>
   <path fill="none" stroke="rgb(0,0,0)" id="Drawing_3_0" stroke-linejoin="round" d="M 17066,5826 C 16867,5826 16698,5781 16526,5681 16354,5582 16230,5458 16131,5286 16031,5114 15986,4945 15986,4747 15986,4548 16031,4379 16131,4207 16230,4035 16354,3911 16526,3812 16698,3712 16867,3667 17066,3667 17264,3667 17433,3712 17605,3812 17777,3911 17901,4035 18000,4207 18100,4379 18145,4548 18145,4746 18145,4945 18100,5114 18000,5286 17901,5458 17777,5582 17605,5681 17433,5781 17264,5826 17066,5826 L 17066,5826 Z"/>
  </g>
  <g>
   <path fill="rgb(207,231,245)" stroke="none" d="M 9493,7096 L 5547,7096 5547,2778 13438,2778 13438,7096 9493,7096 Z"/>
   <path fill="none" stroke="rgb(128,128,128)" id="Drawing_4_0" stroke-linejoin="round" d="M 9493,7096 L 5547,7096 5547,2778 13438,2778 13438,7096 9493,7096 Z"/>
  </g>
  <g>
   <path fill="rgb(207,231,245)" stroke="none" d="M 5469,5180 C 5413,5180 5365,5167 5316,5138 5267,5109 5232,5073 5204,5022 5176,4972 5163,4923 5163,4865 5163,4806 5176,4757 5204,4707 5232,4656 5267,4620 5316,4591 5365,4562 5413,4549 5469,4549 5525,4549 5573,4562 5622,4591 5671,4620 5706,4656 5734,4707 5762,4757 5775,4806 5775,4865 5775,4923 5762,4972 5734,5022 5706,5073 5671,5109 5622,5138 5573,5167 5525,5180 5469,5180 L 5469,5180 Z"/>
   <path fill="none" stroke="rgb(128,128,128)" id="Drawing_5_0" stroke-linejoin="round" d="M 5469,5180 C 5413,5180 5365,5167 5316,5138 5267,5109 5232,5073 5204,5022 5176,4972 5163,4923 5163,4865 5163,4806 5176,4757 5204,4707 5232,4656 5267,4620 5316,4591 5365,4562 5413,4549 5469,4549 5525,4549 5573,4562 5622,4591 5671,4620 5706,4656 5734,4707 5762,4757 5775,4806 5775,4865 5775,4923 5762,4972 5734,5022 5706,5073 5671,5109 5622,5138 5573,5167 5525,5180 5469,5180 L 5469,5180 Z"/>
  </g>
  <g>
   <path fill="rgb(255,255,255)" stroke="none" d="M 13396,5137 C 13339,5137 13292,5124 13243,5095 13195,5066 13160,5030 13132,4979 13104,4929 13091,4880 13091,4822 13091,4763 13104,4714 13132,4664 13160,4613 13195,4577 13243,4548 13292,4519 13339,4506 13396,4506 13452,4506 13499,4519 13548,4548 13596,4577 13631,4613 13659,4664 13687,4714 13700,4763 13700,4822 13700,4880 13687,4929 13659,4979 13631,5030 13596,5066 13548,5095 13499,5124 13452,5137 13396,5137 L 13396,5137 Z"/>
   <path fill="none" stroke="rgb(0,0,0)" id="Drawing_6_0" stroke-linejoin="round" d="M 13396,5137 C 13339,5137 13292,5124 13243,5095 13195,5066 13160,5030 13132,4979 13104,4929 13091,4880 13091,4822 13091,4763 13104,4714 13132,4664 13160,4613 13195,4577 13243,4548 13292,4519 13339,4506 13396,4506 13452,4506 13499,4519 13548,4548 13596,4577 13631,4613 13659,4664 13687,4714 13700,4763 13700,4822 13700,4880 13687,4929 13659,4979 13631,5030 13596,5066 13548,5095 13499,5124 13452,5137 13396,5137 L 13396,5137 Z"/>
  </g>
  <g>
   <path fill="none" stroke="rgb(255,51,51)" id="Drawing_7_0" stroke-linejoin="round" d="M 3540,5064 L 4873,4874"/>
   <path fill="rgb(255,51,51)" stroke="none" id="Drawing_7_1" d="M 5318,4810 L 4851,4725 4894,5022 5318,4810 Z"/>
  </g>
  <g>
   <path fill="none" stroke="rgb(255,51,51)" id="Drawing_8_0" stroke-linejoin="round" d="M 2651,4175 C 8723,-2681 14472,2738 15936,3919"/>
   <path fill="rgb(255,51,51)" stroke="none" id="Drawing_8_1" d="M 16240,4175 L 15989,3763 15792,3997 16240,4175 Z"/>
  </g>
  <g>
   <path fill="rgb(197,0,11)" stroke="none" d="M 2524,4810 L 2016,4810 2016,4175 3032,4175 3032,4810 2524,4810 Z"/>
   <path fill="none" stroke="rgb(255,51,51)" id="Drawing_9_0" stroke-linejoin="round" d="M 2524,4810 L 2016,4810 2016,4175 3032,4175 3032,4810 2524,4810 Z"/>
  </g>
  <g>
   <path fill="rgb(153,255,153)" stroke="none" d="M 2524,5699 L 2016,5699 2016,5064 3032,5064 3032,5699 2524,5699 Z"/>
   <path fill="none" stroke="rgb(128,128,128)" id="Drawing_10_0" stroke-linejoin="round" d="M 2524,5699 L 2016,5699 2016,5064 3032,5064 3032,5699 2524,5699 Z"/>
  </g>
  <g>
   <path fill="rgb(255,255,153)" stroke="none" d="M 1254,5445 L 746,5445 746,4810 1762,4810 1762,5445 1254,5445 Z"/>
   <path fill="none" stroke="rgb(128,128,128)" id="Drawing_11_0" stroke-linejoin="round" d="M 1254,5445 L 746,5445 746,4810 1762,4810 1762,5445 1254,5445 Z"/>
  </g>
  <g>
   <path fill="rgb(197,0,11)" stroke="none" d="M 16875,4556 L 16367,4556 16367,3921 17383,3921 17383,4556 16875,4556 Z"/>
   <path fill="none" stroke="rgb(255,51,51)" id="Drawing_12_0" stroke-linejoin="round" d="M 16875,4556 L 16367,4556 16367,3921 17383,3921 17383,4556 16875,4556 Z"/>
  </g>
  <g>
   <path fill="none" stroke="rgb(255,51,51)" id="Drawing_13_0" stroke-linejoin="round" d="M 13700,4683 L 15669,4994"/>
   <path fill="rgb(255,51,51)" stroke="none" id="Drawing_13_1" d="M 16113,5064 L 15692,4846 15645,5142 16113,5064 Z"/>
  </g>
  <g>
   <path fill="rgb(153,255,153)" stroke="none" d="M 16875,5445 L 16367,5445 16367,4810 17383,4810 17383,5445 16875,5445 Z"/>
   <path fill="none" stroke="rgb(128,128,128)" id="Drawing_14_0" stroke-linejoin="round" d="M 16875,5445 L 16367,5445 16367,4810 17383,4810 17383,5445 16875,5445 Z"/>
  </g>
  <g>
   <path fill="rgb(207,231,245)" stroke="none" d="M 2703,5699 C 2647,5699 2599,5686 2550,5657 2501,5628 2466,5592 2438,5541 2410,5491 2397,5442 2397,5384 2397,5325 2410,5276 2438,5226 2466,5175 2501,5139 2550,5110 2599,5081 2647,5068 2703,5068 2759,5068 2807,5081 2856,5110 2905,5139 2940,5175 2968,5226 2996,5276 3009,5325 3009,5384 3009,5442 2996,5491 2968,5541 2940,5592 2905,5628 2856,5657 2807,5686 2759,5699 2703,5699 L 2703,5699 Z"/>
   <path fill="none" stroke="rgb(128,128,128)" id="Drawing_15_0" stroke-linejoin="round" d="M 2703,5699 C 2647,5699 2599,5686 2550,5657 2501,5628 2466,5592 2438,5541 2410,5491 2397,5442 2397,5384 2397,5325 2410,5276 2438,5226 2466,5175 2501,5139 2550,5110 2599,5081 2647,5068 2703,5068 2759,5068 2807,5081 2856,5110 2905,5139 2940,5175 2968,5226 2996,5276 3009,5325 3009,5384 3009,5442 2996,5491 2968,5541 2940,5592 2905,5628 2856,5657 2807,5686 2759,5699 2703,5699 L 2703,5699 Z"/>
  </g>
  <g>
   <path fill="rgb(255,255,255)" stroke="none" d="M 16698,5441 C 16641,5441 16594,5428 16545,5399 16497,5370 16462,5334 16434,5283 16406,5233 16393,5184 16393,5126 16393,5067 16406,5018 16434,4968 16462,4917 16497,4881 16545,4852 16594,4823 16641,4810 16698,4810 16754,4810 16801,4823 16850,4852 16898,4881 16933,4917 16961,4968 16989,5018 17002,5067 17002,5126 17002,5184 16989,5233 16961,5283 16933,5334 16898,5370 16850,5399 16801,5428 16754,5441 16698,5441 L 16698,5441 Z"/>
   <path fill="none" stroke="rgb(0,0,0)" id="Drawing_16_0" stroke-linejoin="round" d="M 16698,5441 C 16641,5441 16594,5428 16545,5399 16497,5370 16462,5334 16434,5283 16406,5233 16393,5184 16393,5126 16393,5067 16406,5018 16434,4968 16462,4917 16497,4881 16545,4852 16594,4823 16641,4810 16698,4810 16754,4810 16801,4823 16850,4852 16898,4881 16933,4917 16961,4968 16989,5018 17002,5067 17002,5126 17002,5184 16989,5233 16961,5283 16933,5334 16898,5370 16850,5399 16801,5428 16754,5441 16698,5441 L 16698,5441 Z"/>
  </g>
 </g>
</svg>