<?xml version="1.0" encoding="UTF-8"?>

<svg version="1.2" baseProfile="tiny" width="76.2mm" height="50.8mm" viewBox="0 0 7620 5080" preserveAspectRatio="xMidYMid" fill-rule="evenodd" stroke-width="28.222" stroke-linejoin="round" xmlns="http://www.w3.org/2000/svg" xmlns:xlink="http://www.w3.org/1999/xlink" xml:space="preserve">
 <g visibility="visible" id="MasterSlide_1_Default">
  <desc>Master slide
  </desc>
  <rect fill="none" stroke="none" x="0" y="0" width="7620" height="5080"/>
 </g>
 <g visibility="visible" id="Slide_1_page1">
  <g id="DrawingGroup_1">
   <g>
    <path fill="rgb(207,231,245)" stroke="none" d="M 3842,3413 L 1805,3413 1805,1257 5879,1257 5879,3413 3842,3413 Z"/>
    <path fill="none" stroke="rgb(128,128,128)" id="Drawing_1_0" stroke-linejoin="round" d="M 3842,3413 L 1805,3413 1805,1257 5879,1257 5879,3413 3842,3413 Z"/>
   </g>
   <g>
    <path fill="rgb(255,255,255)" stroke="none" d="M 1765,2456 C 1736,2456 1711,2449 1686,2435 1661,2420 1643,2402 1628,2377 1614,2352 1607,2327 1607,2299 1607,2270 1614,2245 1628,2220 1643,2195 1661,2177 1686,2162 1711,2148 1736,2141 1765,2141 1793,2141 1818,2148 1843,2162 1868,2177 1886,2195 1901,2220 1915,2245 1922,2270 1922,2299 1922,2327 1915,2352 1901,2377 1886,2402 1868,2420 1843,2435 1818,2449 1793,2456 1765,2456 L 1765,2456 Z"/>
    <path fill="none" stroke="rgb(0,0,0)" id="Drawing_2_0" stroke-linejoin="round" d="M 1765,2456 C 1736,2456 1711,2449 1686,2435 1661,2420 1643,2402 1628,2377 1614,2352 1607,2327 1607,2299 1607,2270 1614,2245 1628,2220 1643,2195 1661,2177 1686,2162 1711,2148 1736,2141 1765,2141 1793,2141 1818,2148 1843,2162 1868,2177 1886,2195 1901,2220 1915,2245 1922,2270 1922,2299 1922,2327 1915,2352 1901,2377 1886,2402 1868,2420 1843,2435 1818,2449 1793,2456 1765,2456 L 1765,2456 Z"/>
   </g>
   <g>
    <path fill="rgb(255,255,255)" stroke="none" d="M 5857,2435 C 5828,2435 5803,2428 5778,2414 5753,2399 5735,2381 5720,2356 5706,2331 5699,2306 5699,2278 5699,2249 5706,2224 5720,2199 5735,2174 5753,2156 5778,2141 5803,2127 5828,2120 5857,2120 5885,2120 5910,2127 5935,2141 5960,2156 5978,2174 5993,2199 6007,2224 6014,2249 6014,2278 6014,2306 6007,2331 5993,2356 5978,2381 5960,2399 5935,2414 5910,2428 5885,2435 5857,2435 L 5857,2435 Z"/>
    <path fill="none" stroke="rgb(0,0,0)" id="Drawing_3_0" stroke-linejoin="round" d="M 5857,2435 C 5828,2435 5803,2428 5778,2414 5753,2399 5735,2381 5720,2356 5706,2331 5699,2306 5699,2278 5699,2249 5706,2224 5720,2199 5735,2174 5753,2156 5778,2141 5803,2127 5828,2120 5857,2120 5885,2120 5910,2127 5935,2141 5960,2156 5978,2174 5993,2199 6007,2224 6014,2249 6014,2278 6014,2306 6007,2331 5993,2356 5978,2381 5960,2399 5935,2414 5910,2428 5885,2435 5857,2435 L 5857,2435 Z"/>
   </g>
  </g>
 </g>
</svg>