<?xml version="1.0" encoding="UTF-8"?>

<svg version="1.2" baseProfile="tiny" width="76.2mm" height="50.8mm" viewBox="0 0 7620 5080" preserveAspectRatio="xMidYMid" fill-rule="evenodd" stroke-width="28.222" stroke-linejoin="round" xmlns="http://www.w3.org/2000/svg" xmlns:xlink="http://www.w3.org/1999/xlink" xml:space="preserve">
 <g visibility="visible" id="MasterSlide_1_Default">
  <desc>Master slide
  </desc>
  <rect fill="none" stroke="none" x="0" y="0" width="7620" height="5080"/>
 </g>
 <g visibility="visible" id="Slide_1_page1">
  <g>
   <path fill="rgb(207,231,245)" stroke="none" d="M 3800,4132 L 1049,4132 1049,949 6551,949 6551,4132 3800,4132 Z"/>
   <path fill="none" stroke="rgb(128,128,128)" id="Drawing_1_0" stroke-linejoin="round" d="M 3800,4132 L 1049,4132 1049,949 6551,949 6551,4132 3800,4132 Z"/>
  </g>
  <g>
   <path fill="rgb(0,0,0)" stroke="none" d="M 1070,2698 C 1041,2698 1016,2691 991,2677 966,2662 948,2644 933,2619 919,2594 912,2569 912,2541 912,2512 919,2487 933,2462 948,2437 966,2419 991,2404 1016,2390 1041,2383 1070,2383 1098,2383 1123,2390 1148,2404 1173,2419 1191,2437 1206,2462 1220,2487 1227,2512 1227,2541 1227,2569 1220,2594 1206,2619 1191,2644 1173,2662 1148,2677 1123,2691 1098,2698 1070,2698 L 1070,2698 Z"/>
   <path fill="none" stroke="rgb(128,128,128)" id="Drawing_2_0" stroke-linejoin="round" d="M 1070,2698 C 1041,2698 1016,2691 991,2677 966,2662 948,2644 933,2619 919,2594 912,2569 912,2541 912,2512 919,2487 933,2462 948,2437 966,2419 991,2404 1016,2390 1041,2383 1070,2383 1098,2383 1123,2390 1148,2404 1173,2419 1191,2437 1206,2462 1220,2487 1227,2512 1227,2541 1227,2569 1220,2594 1206,2619 1191,2644 1173,2662 1148,2677 1123,2691 1098,2698 1070,2698 L 1070,2698 Z"/>
  </g>
  <g>
   <path fill="rgb(0,0,0)" stroke="none" d="M 6552,2698 C 6523,2698 6498,2691 6473,2677 6448,2662 6430,2644 6415,2619 6401,2594 6394,2569 6394,2541 6394,2512 6401,2487 6415,2462 6430,2437 6448,2419 6473,2404 6498,2390 6523,2383 6552,2383 6580,2383 6605,2390 6630,2404 6655,2419 6673,2437 6688,2462 6702,2487 6709,2512 6709,2541 6709,2569 6702,2594 6688,2619 6673,2644 6655,2662 6630,2677 6605,2691 6580,2698 6552,2698 L 6552,2698 Z"/>
   <path fill="none" stroke="rgb(0,0,0)" id="Drawing_3_0" stroke-linejoin="round" d="M 6552,2698 C 6523,2698 6498,2691 6473,2677 6448,2662 6430,2644 6415,2619 6401,2594 6394,2569 6394,2541 6394,2512 6401,2487 6415,2462 6430,2437 6448,2419 6473,2404 6498,2390 6523,2383 6552,2383 6580,2383 6605,2390 6630,2404 6655,2419 6673,2437 6688,2462 6702,2487 6709,2512 6709,2541 6709,2569 6702,2594 6688,2619 6673,2644 6655,2662 6630,2677 6605,2691 6580,2698 6552,2698 L 6552,2698 Z"/>
  </g>
  <g>
   <path fill="rgb(207,231,245)" stroke="none" d="M 3792,3618 L 1755,3618 1755,1462 5829,1462 5829,3618 3792,3618 Z"/>
   <path fill="none" stroke="rgb(128,128,128)" id="Drawing_4_0" stroke-linejoin="round" d="M 3792,3618 L 1755,3618 1755,1462 5829,1462 5829,3618 3792,3618 Z"/>
  </g>
  <g>
   <path fill="rgb(255,255,255)" stroke="none" d="M 1715,2698 C 1686,2698 1661,2691 1636,2677 1611,2662 1593,2644 1578,2619 1564,2594 1557,2569 1557,2541 1557,2512 1564,2487 1578,2462 1593,2437 1611,2419 1636,2404 1661,2390 1686,2383 1715,2383 1743,2383 1768,2390 1793,2404 1818,2419 1836,2437 1851,2462 1865,2487 1872,2512 1872,2541 1872,2569 1865,2594 1851,2619 1836,2644 1818,2662 1793,2677 1768,2691 1743,2698 1715,2698 L 1715,2698 Z"/>
   <path fill="none" stroke="rgb(0,0,0)" id="Drawing_5_0" stroke-linejoin="round" d="M 1715,2698 C 1686,2698 1661,2691 1636,2677 1611,2662 1593,2644 1578,2619 1564,2594 1557,2569 1557,2541 1557,2512 1564,2487 1578,2462 1593,2437 1611,2419 1636,2404 1661,2390 1686,2383 1715,2383 1743,2383 1768,2390 1793,2404 1818,2419 1836,2437 1851,2462 1865,2487 1872,2512 1872,2541 1872,2569 1865,2594 1851,2619 1836,2644 1818,2662 1793,2677 1768,2691 1743,2698 1715,2698 L 1715,2698 Z"/>
  </g>
  <g>
   <path fill="rgb(255,255,255)" stroke="none" d="M 5808,2698 C 5779,2698 5754,2691 5729,2677 5704,2662 5686,2644 5671,2619 5657,2594 5650,2569 5650,2541 5650,2512 5657,2487 5671,2462 5686,2437 5704,2419 5729,2404 5754,2390 5779,2383 5808,2383 5836,2383 5861,2390 5886,2404 5911,2419 5929,2437 5944,2462 5958,2487 5965,2512 5965,2541 5965,2569 5958,2594 5944,2619 5929,2644 5911,2662 5886,2677 5861,2691 5836,2698 5808,2698 L 5808,2698 Z"/>
   <path fill="none" stroke="rgb(0,0,0)" id="Drawing_6_0" stroke-linejoin="round" d="M 5808,2698 C 5779,2698 5754,2691 5729,2677 5704,2662 5686,2644 5671,2619 5657,2594 5650,2569 5650,2541 5650,2512 5657,2487 5671,2462 5686,2437 5704,2419 5729,2404 5754,2390 5779,2383 5808,2383 5836,2383 5861,2390 5886,2404 5911,2419 5929,2437 5944,2462 5958,2487 5965,2512 5965,2541 5965,2569 5958,2594 5944,2619 5929,2644 5911,2662 5886,2677 5861,2691 5836,2698 5808,2698 L 5808,2698 Z"/>
  </g>
 </g>
</svg>