<?xml version="1.0" encoding="UTF-8"?>

<svg version="1.2" baseProfile="tiny" width="76.2mm" height="50.8mm" viewBox="0 0 7620 5080" preserveAspectRatio="xMidYMid" fill-rule="evenodd" stroke-width="28.222" stroke-linejoin="round" xmlns="http://www.w3.org/2000/svg" xmlns:xlink="http://www.w3.org/1999/xlink" xml:space="preserve">
 <g visibility="visible" id="MasterSlide_1_Default">
  <desc>Master slide
  </desc>
  <rect fill="none" stroke="none" x="0" y="0" width="7620" height="5080"/>
 </g>
 <g visibility="visible" id="Slide_1_page1">
  <g>
   <path fill="rgb(207,231,245)" stroke="none" d="M 3811,4175 L 781,4175 781,949 6840,949 6840,4175 3811,4175 Z"/>
   <path fill="none" stroke="rgb(128,128,128)" id="Drawing_1_0" stroke-linejoin="round" d="M 3811,4175 L 781,4175 781,949 6840,949 6840,4175 3811,4175 Z"/>
  </g>
  <g>
   <path fill="rgb(0,0,0)" stroke="none" d="M 777,2712 C 748,2712 723,2705 698,2691 673,2676 655,2658 640,2633 626,2608 619,2583 619,2555 619,2526 626,2501 640,2476 655,2451 673,2433 698,2418 723,2404 748,2397 776,2397 805,2397 830,2404 855,2418 880,2433 898,2451 913,2476 927,2501 934,2526 934,2555 934,2583 927,2608 913,2633 898,2658 880,2676 855,2691 830,2705 805,2712 777,2712 L 777,2712 Z"/>
   <path fill="none" stroke="rgb(128,128,128)" id="Drawing_2_0" stroke-linejoin="round" d="M 777,2712 C 748,2712 723,2705 698,2691 673,2676 655,2658 640,2633 626,2608 619,2583 619,2555 619,2526 626,2501 640,2476 655,2451 673,2433 698,2418 723,2404 748,2397 776,2397 805,2397 830,2404 855,2418 880,2433 898,2451 913,2476 927,2501 934,2526 934,2555 934,2583 927,2608 913,2633 898,2658 880,2676 855,2691 830,2705 805,2712 777,2712 L 777,2712 Z"/>
  </g>
  <g>
   <path fill="rgb(0,0,0)" stroke="none" d="M 6812,2712 C 6783,2712 6758,2705 6733,2691 6708,2676 6690,2658 6675,2633 6661,2608 6654,2583 6654,2555 6654,2526 6661,2501 6675,2476 6690,2451 6708,2433 6733,2418 6758,2404 6783,2397 6812,2397 6840,2397 6865,2404 6890,2418 6915,2433 6933,2451 6948,2476 6962,2501 6969,2526 6969,2555 6969,2583 6962,2608 6948,2633 6933,2658 6915,2676 6890,2691 6865,2705 6840,2712 6812,2712 L 6812,2712 Z"/>
   <path fill="none" stroke="rgb(0,0,0)" id="Drawing_3_0" stroke-linejoin="round" d="M 6812,2712 C 6783,2712 6758,2705 6733,2691 6708,2676 6690,2658 6675,2633 6661,2608 6654,2583 6654,2555 6654,2526 6661,2501 6675,2476 6690,2451 6708,2433 6733,2418 6758,2404 6783,2397 6812,2397 6840,2397 6865,2404 6890,2418 6915,2433 6933,2451 6948,2476 6962,2501 6969,2526 6969,2555 6969,2583 6962,2608 6948,2633 6933,2658 6915,2676 6890,2691 6865,2705 6840,2712 6812,2712 L 6812,2712 Z"/>
  </g>
  <g id="DrawingGroup_1">
   <g>
    <path fill="rgb(207,231,245)" stroke="none" d="M 3841,3618 L 1804,3618 1804,1462 5878,1462 5878,3618 3841,3618 Z"/>
    <path fill="none" stroke="rgb(128,128,128)" id="Drawing_4_0" stroke-linejoin="round" d="M 3841,3618 L 1804,3618 1804,1462 5878,1462 5878,3618 3841,3618 Z"/>
   </g>
   <g>
    <path fill="rgb(255,255,255)" stroke="none" d="M 1764,2698 C 1735,2698 1710,2691 1685,2677 1660,2662 1642,2644 1627,2619 1613,2594 1606,2569 1606,2541 1606,2512 1613,2487 1627,2462 1642,2437 1660,2419 1685,2404 1710,2390 1735,2383 1764,2383 1792,2383 1817,2390 1842,2404 1867,2419 1885,2437 1900,2462 1914,2487 1921,2512 1921,2541 1921,2569 1914,2594 1900,2619 1885,2644 1867,2662 1842,2677 1817,2691 1792,2698 1764,2698 L 1764,2698 Z"/>
    <path fill="none" stroke="rgb(0,0,0)" id="Drawing_5_0" stroke-linejoin="round" d="M 1764,2698 C 1735,2698 1710,2691 1685,2677 1660,2662 1642,2644 1627,2619 1613,2594 1606,2569 1606,2541 1606,2512 1613,2487 1627,2462 1642,2437 1660,2419 1685,2404 1710,2390 1735,2383 1764,2383 1792,2383 1817,2390 1842,2404 1867,2419 1885,2437 1900,2462 1914,2487 1921,2512 1921,2541 1921,2569 1914,2594 1900,2619 1885,2644 1867,2662 1842,2677 1817,2691 1792,2698 1764,2698 L 1764,2698 Z"/>
   </g>
   <g>
    <path fill="rgb(255,255,255)" stroke="none" d="M 5857,2698 C 5828,2698 5803,2691 5778,2677 5753,2662 5735,2644 5720,2619 5706,2594 5699,2569 5699,2541 5699,2512 5706,2487 5720,2462 5735,2437 5753,2419 5778,2404 5803,2390 5828,2383 5857,2383 5885,2383 5910,2390 5935,2404 5960,2419 5978,2437 5993,2462 6007,2487 6014,2512 6014,2541 6014,2569 6007,2594 5993,2619 5978,2644 5960,2662 5935,2677 5910,2691 5885,2698 5857,2698 L 5857,2698 Z"/>
    <path fill="none" stroke="rgb(0,0,0)" id="Drawing_6_0" stroke-linejoin="round" d="M 5857,2698 C 5828,2698 5803,2691 5778,2677 5753,2662 5735,2644 5720,2619 5706,2594 5699,2569 5699,2541 5699,2512 5706,2487 5720,2462 5735,2437 5753,2419 5778,2404 5803,2390 5828,2383 5857,2383 5885,2383 5910,2390 5935,2404 5960,2419 5978,2437 5993,2462 6007,2487 6014,2512 6014,2541 6014,2569 6007,2594 5993,2619 5978,2644 5960,2662 5935,2677 5910,2691 5885,2698 5857,2698 L 5857,2698 Z"/>
   </g>
  </g>
  <g>
   <path fill="none" stroke="rgb(255,51,51)" id="Drawing_7_0" stroke-linejoin="round" d="M 1000,2524 L 1280,2524"/>
   <path fill="rgb(255,51,51)" stroke="none" id="Drawing_7_1" d="M 1508,2524 L 1280,2448 1280,2600 1508,2524 Z"/>
  </g>
  <g>
   <path fill="none" stroke="rgb(255,51,51)" id="Drawing_8_0" stroke-linejoin="round" d="M 6080,2524 L 6360,2524"/>
   <path fill="rgb(255,51,51)" stroke="none" id="Drawing_8_1" d="M 6588,2524 L 6360,2448 6360,2600 6588,2524 Z"/>
  </g>
 </g>
</svg>