<?xml version="1.0" encoding="UTF-8"?>

<svg version="1.2" baseProfile="tiny" width="76.2mm" height="50.8mm" viewBox="0 0 7620 5080" preserveAspectRatio="xMidYMid" fill-rule="evenodd" stroke-width="28.222" stroke-linejoin="round" xmlns="http://www.w3.org/2000/svg" xmlns:xlink="http://www.w3.org/1999/xlink" xml:space="preserve">
 <g visibility="visible" id="MasterSlide_1_Default">
  <desc>Master slide
  </desc>
  <rect fill="none" stroke="none" x="0" y="0" width="7620" height="5080"/>
 </g>
 <g visibility="visible" id="Slide_1_page1">
  <g>
   <path fill="rgb(207,231,245)" stroke="none" d="M 3811,4429 L 781,4429 781,619 6840,619 6840,4429 3811,4429 Z"/>
   <path fill="none" stroke="rgb(128,128,128)" id="Drawing_1_0" stroke-linejoin="round" d="M 3811,4429 L 781,4429 781,619 6840,619 6840,4429 3811,4429 Z"/>
  </g>
  <g>
   <path fill="rgb(207,231,245)" stroke="none" d="M 3836,3618 L 2157,3618 2157,1462 5515,1462 5515,3618 3836,3618 Z"/>
   <path fill="none" stroke="rgb(128,128,128)" id="Drawing_2_0" stroke-linejoin="round" d="M 3836,3618 L 2157,3618 2157,1462 5515,1462 5515,3618 3836,3618 Z"/>
  </g>
  <g>
   <path fill="rgb(255,255,255)" stroke="none" d="M 2123,2698 C 2099,2698 2079,2691 2058,2677 2037,2662 2022,2644 2010,2619 1998,2594 1993,2569 1993,2541 1993,2512 1998,2487 2010,2462 2022,2437 2037,2419 2058,2404 2079,2390 2099,2383 2123,2383 2147,2383 2167,2390 2188,2404 2209,2419 2224,2437 2236,2462 2248,2487 2253,2512 2253,2541 2253,2569 2248,2594 2236,2619 2224,2644 2209,2662 2188,2677 2167,2691 2147,2698 2123,2698 L 2123,2698 Z"/>
   <path fill="none" stroke="rgb(0,0,0)" id="Drawing_3_0" stroke-linejoin="round" d="M 2123,2698 C 2099,2698 2079,2691 2058,2677 2037,2662 2022,2644 2010,2619 1998,2594 1993,2569 1993,2541 1993,2512 1998,2487 2010,2462 2022,2437 2037,2419 2058,2404 2079,2390 2099,2383 2123,2383 2147,2383 2167,2390 2188,2404 2209,2419 2224,2437 2236,2462 2248,2487 2253,2512 2253,2541 2253,2569 2248,2594 2236,2619 2224,2644 2209,2662 2188,2677 2167,2691 2147,2698 2123,2698 L 2123,2698 Z"/>
  </g>
  <g>
   <path fill="rgb(255,255,255)" stroke="none" d="M 5497,2698 C 5473,2698 5453,2691 5432,2677 5411,2662 5396,2644 5384,2619 5372,2594 5367,2569 5367,2541 5367,2512 5372,2487 5384,2462 5396,2437 5411,2419 5432,2404 5453,2390 5473,2383 5497,2383 5521,2383 5541,2390 5562,2404 5583,2419 5598,2437 5610,2462 5622,2487 5627,2512 5627,2541 5627,2569 5622,2594 5610,2619 5598,2644 5583,2662 5562,2677 5541,2691 5521,2698 5497,2698 L 5497,2698 Z"/>
   <path fill="none" stroke="rgb(0,0,0)" id="Drawing_4_0" stroke-linejoin="round" d="M 5497,2698 C 5473,2698 5453,2691 5432,2677 5411,2662 5396,2644 5384,2619 5372,2594 5367,2569 5367,2541 5367,2512 5372,2487 5384,2462 5396,2437 5411,2419 5432,2404 5453,2390 5473,2383 5497,2383 5521,2383 5541,2390 5562,2404 5583,2419 5598,2437 5610,2462 5622,2487 5627,2512 5627,2541 5627,2569 5622,2594 5610,2619 5598,2644 5583,2662 5562,2677 5541,2691 5521,2698 5497,2698 L 5497,2698 Z"/>
  </g>
  <g>
   <path fill="none" stroke="rgb(255,51,51)" id="Drawing_5_0" stroke-linejoin="round" d="M 1000,2524 L 1661,2524"/>
   <path fill="rgb(255,51,51)" stroke="none" id="Drawing_5_1" d="M 1889,2524 L 1661,2448 1661,2600 1889,2524 Z"/>
  </g>
  <g>
   <path fill="none" stroke="rgb(255,51,51)" id="Drawing_6_0" stroke-linejoin="round" d="M 5699,2524 L 6360,2524"/>
   <path fill="rgb(255,51,51)" stroke="none" id="Drawing_6_1" d="M 6588,2524 L 6360,2448 6360,2600 6588,2524 Z"/>
  </g>
  <g>
   <path fill="none" stroke="rgb(255,51,51)" id="Drawing_7_0" stroke-linejoin="round" d="M 873,2524 C 3794,-906 5776,1655 6441,2330"/>
   <path fill="rgb(255,51,51)" stroke="none" id="Drawing_7_1" d="M 6620,2524 L 6490,2236 6343,2371 6620,2524 Z"/>
  </g>
  <g id="DrawingGroup_1">
   <g>
    <path fill="rgb(0,0,0)" stroke="none" d="M 683,2992 C 601,2992 531,2973 460,2932 389,2890 338,2838 298,2766 257,2694 238,2624 238,2541 238,2457 257,2387 298,2315 338,2243 389,2191 460,2149 531,2108 601,2089 682,2089 764,2089 834,2108 905,2149 976,2191 1027,2243 1067,2315 1108,2387 1127,2457 1127,2540 1127,2624 1108,2694 1067,2766 1027,2838 976,2890 905,2932 834,2973 764,2992 683,2992 L 683,2992 Z"/>
    <path fill="none" stroke="rgb(0,0,0)" id="Drawing_8_0" stroke-linejoin="round" d="M 683,2992 C 601,2992 531,2973 460,2932 389,2890 338,2838 298,2766 257,2694 238,2624 238,2541 238,2457 257,2387 298,2315 338,2243 389,2191 460,2149 531,2108 601,2089 682,2089 764,2089 834,2108 905,2149 976,2191 1027,2243 1067,2315 1108,2387 1127,2457 1127,2540 1127,2624 1108,2694 1067,2766 1027,2838 976,2890 905,2932 834,2973 764,2992 683,2992 L 683,2992 Z"/>
   </g>
   <g>
    <path fill="rgb(255,255,255)" stroke="none" d="M 616,2905 C 592,2905 572,2898 551,2884 530,2869 515,2851 503,2826 491,2801 486,2776 486,2748 486,2719 491,2694 503,2669 515,2644 530,2626 551,2611 572,2597 592,2590 616,2590 640,2590 660,2597 681,2611 702,2626 717,2644 729,2669 741,2694 746,2719 746,2748 746,2776 741,2801 729,2826 717,2851 702,2869 681,2884 660,2898 640,2905 616,2905 L 616,2905 Z"/>
    <path fill="none" stroke="rgb(0,0,0)" id="Drawing_9_0" stroke-linejoin="round" d="M 616,2905 C 592,2905 572,2898 551,2884 530,2869 515,2851 503,2826 491,2801 486,2776 486,2748 486,2719 491,2694 503,2669 515,2644 530,2626 551,2611 572,2597 592,2590 616,2590 640,2590 660,2597 681,2611 702,2626 717,2644 729,2669 741,2694 746,2719 746,2748 746,2776 741,2801 729,2826 717,2851 702,2869 681,2884 660,2898 640,2905 616,2905 L 616,2905 Z"/>
   </g>
  </g>
  <g>
   <path fill="none" stroke="rgb(255,51,51)" id="Drawing_10_0" stroke-linejoin="round" d="M 746,2651 L 937,2523"/>
   <path fill="rgb(255,51,51)" stroke="none" id="Drawing_10_1" d="M 1127,2397 L 895,2460 979,2587 1127,2397 Z"/>
  </g>
  <g id="DrawingGroup_2">
   <g>
    <path fill="rgb(0,0,0)" stroke="none" d="M 7033,3032 C 6951,3032 6881,3013 6810,2972 6739,2930 6688,2878 6648,2806 6607,2734 6588,2664 6588,2581 6588,2497 6607,2427 6648,2355 6688,2283 6739,2231 6810,2189 6881,2148 6951,2129 7033,2129 7114,2129 7184,2148 7255,2189 7326,2231 7377,2283 7417,2355 7458,2427 7477,2497 7477,2580 7477,2664 7458,2734 7417,2806 7377,2878 7326,2930 7255,2972 7184,3013 7114,3032 7033,3032 L 7033,3032 Z"/>
    <path fill="none" stroke="rgb(0,0,0)" id="Drawing_11_0" stroke-linejoin="round" d="M 7033,3032 C 6951,3032 6881,3013 6810,2972 6739,2930 6688,2878 6648,2806 6607,2734 6588,2664 6588,2581 6588,2497 6607,2427 6648,2355 6688,2283 6739,2231 6810,2189 6881,2148 6951,2129 7033,2129 7114,2129 7184,2148 7255,2189 7326,2231 7377,2283 7417,2355 7458,2427 7477,2497 7477,2580 7477,2664 7458,2734 7417,2806 7377,2878 7326,2930 7255,2972 7184,3013 7114,3032 7033,3032 L 7033,3032 Z"/>
   </g>
   <g>
    <path fill="rgb(255,255,255)" stroke="none" d="M 6966,2945 C 6942,2945 6922,2938 6901,2924 6880,2909 6865,2891 6853,2866 6841,2841 6836,2816 6836,2788 6836,2759 6841,2734 6853,2709 6865,2684 6880,2666 6901,2651 6922,2637 6942,2630 6966,2630 6990,2630 7010,2637 7031,2651 7052,2666 7067,2684 7079,2709 7091,2734 7096,2759 7096,2788 7096,2816 7091,2841 7079,2866 7067,2891 7052,2909 7031,2924 7010,2938 6990,2945 6966,2945 L 6966,2945 Z"/>
    <path fill="none" stroke="rgb(0,0,0)" id="Drawing_12_0" stroke-linejoin="round" d="M 6966,2945 C 6942,2945 6922,2938 6901,2924 6880,2909 6865,2891 6853,2866 6841,2841 6836,2816 6836,2788 6836,2759 6841,2734 6853,2709 6865,2684 6880,2666 6901,2651 6922,2637 6942,2630 6966,2630 6990,2630 7010,2637 7031,2651 7052,2666 7067,2684 7079,2709 7091,2734 7096,2759 7096,2788 7096,2816 7091,2841 7079,2866 7067,2891 7052,2909 7031,2924 7010,2938 6990,2945 6966,2945 L 6966,2945 Z"/>
   </g>
  </g>
 </g>
</svg>