<?xml version="1.0" encoding="UTF-8"?>

<svg version="1.2" baseProfile="tiny" width="228.6mm" height="50.8mm" viewBox="0 0 22860 5080" preserveAspectRatio="xMidYMid" fill-rule="evenodd" stroke-width="28.222" stroke-linejoin="round" xmlns="http://www.w3.org/2000/svg" xmlns:xlink="http://www.w3.org/1999/xlink" xml:space="preserve">
 <g visibility="visible" id="MasterSlide_1_Default">
  <desc>Master slide
  </desc>
  <rect fill="none" stroke="none" x="0" y="0" width="22860" height="5080"/>
 </g>
 <g visibility="visible" id="Slide_1_page1">
  <g>
   <path fill="rgb(207,231,245)" stroke="none" d="M 7193,4429 L 4163,4429 4163,619 10222,619 10222,4429 7193,4429 Z"/>
   <path fill="none" stroke="rgb(128,128,128)" id="Drawing_1_0" stroke-linejoin="round" d="M 7193,4429 L 4163,4429 4163,619 10222,619 10222,4429 7193,4429 Z"/>
  </g>
  <g>
   <path fill="rgb(207,231,245)" stroke="none" d="M 7218,3618 L 5539,3618 5539,1462 8897,1462 8897,3618 7218,3618 Z"/>
   <path fill="none" stroke="rgb(128,128,128)" id="Drawing_2_0" stroke-linejoin="round" d="M 7218,3618 L 5539,3618 5539,1462 8897,1462 8897,3618 7218,3618 Z"/>
  </g>
  <g>
   <path fill="rgb(255,255,255)" stroke="none" d="M 5505,2698 C 5481,2698 5461,2691 5440,2677 5419,2662 5404,2644 5392,2619 5380,2594 5375,2569 5375,2541 5375,2512 5380,2487 5392,2462 5404,2437 5419,2419 5440,2404 5461,2390 5481,2383 5505,2383 5529,2383 5549,2390 5570,2404 5591,2419 5606,2437 5618,2462 5630,2487 5635,2512 5635,2541 5635,2569 5630,2594 5618,2619 5606,2644 5591,2662 5570,2677 5549,2691 5529,2698 5505,2698 L 5505,2698 Z"/>
   <path fill="none" stroke="rgb(0,0,0)" id="Drawing_3_0" stroke-linejoin="round" d="M 5505,2698 C 5481,2698 5461,2691 5440,2677 5419,2662 5404,2644 5392,2619 5380,2594 5375,2569 5375,2541 5375,2512 5380,2487 5392,2462 5404,2437 5419,2419 5440,2404 5461,2390 5481,2383 5505,2383 5529,2383 5549,2390 5570,2404 5591,2419 5606,2437 5618,2462 5630,2487 5635,2512 5635,2541 5635,2569 5630,2594 5618,2619 5606,2644 5591,2662 5570,2677 5549,2691 5529,2698 5505,2698 L 5505,2698 Z"/>
  </g>
  <g>
   <path fill="rgb(255,255,255)" stroke="none" d="M 8879,2698 C 8855,2698 8835,2691 8814,2677 8793,2662 8778,2644 8766,2619 8754,2594 8749,2569 8749,2541 8749,2512 8754,2487 8766,2462 8778,2437 8793,2419 8814,2404 8835,2390 8855,2383 8879,2383 8903,2383 8923,2390 8944,2404 8965,2419 8980,2437 8992,2462 9004,2487 9009,2512 9009,2541 9009,2569 9004,2594 8992,2619 8980,2644 8965,2662 8944,2677 8923,2691 8903,2698 8879,2698 L 8879,2698 Z"/>
   <path fill="none" stroke="rgb(0,0,0)" id="Drawing_4_0" stroke-linejoin="round" d="M 8879,2698 C 8855,2698 8835,2691 8814,2677 8793,2662 8778,2644 8766,2619 8754,2594 8749,2569 8749,2541 8749,2512 8754,2487 8766,2462 8778,2437 8793,2419 8814,2404 8835,2390 8855,2383 8879,2383 8903,2383 8923,2390 8944,2404 8965,2419 8980,2437 8992,2462 9004,2487 9009,2512 9009,2541 9009,2569 9004,2594 8992,2619 8980,2644 8965,2662 8944,2677 8923,2691 8903,2698 8879,2698 L 8879,2698 Z"/>
  </g>
  <g id="DrawingGroup_1">
   <g>
    <path fill="rgb(0,0,0)" stroke="none" d="M 4065,2992 C 3983,2992 3913,2973 3842,2932 3771,2890 3720,2838 3680,2766 3639,2694 3620,2624 3620,2541 3620,2457 3639,2387 3680,2315 3720,2243 3771,2191 3842,2149 3913,2108 3983,2089 4065,2089 4146,2089 4216,2108 4287,2149 4358,2191 4409,2243 4449,2315 4490,2387 4509,2457 4509,2540 4509,2624 4490,2694 4449,2766 4409,2838 4358,2890 4287,2932 4216,2973 4146,2992 4065,2992 L 4065,2992 Z"/>
    <path fill="none" stroke="rgb(0,0,0)" id="Drawing_5_0" stroke-linejoin="round" d="M 4065,2992 C 3983,2992 3913,2973 3842,2932 3771,2890 3720,2838 3680,2766 3639,2694 3620,2624 3620,2541 3620,2457 3639,2387 3680,2315 3720,2243 3771,2191 3842,2149 3913,2108 3983,2089 4065,2089 4146,2089 4216,2108 4287,2149 4358,2191 4409,2243 4449,2315 4490,2387 4509,2457 4509,2540 4509,2624 4490,2694 4449,2766 4409,2838 4358,2890 4287,2932 4216,2973 4146,2992 4065,2992 L 4065,2992 Z"/>
   </g>
   <g>
    <path fill="rgb(255,255,255)" stroke="none" d="M 3998,2905 C 3974,2905 3954,2898 3933,2884 3912,2869 3897,2851 3885,2826 3873,2801 3868,2776 3868,2748 3868,2719 3873,2694 3885,2669 3897,2644 3912,2626 3933,2611 3954,2597 3974,2590 3998,2590 4022,2590 4042,2597 4063,2611 4084,2626 4099,2644 4111,2669 4123,2694 4128,2719 4128,2748 4128,2776 4123,2801 4111,2826 4099,2851 4084,2869 4063,2884 4042,2898 4022,2905 3998,2905 L 3998,2905 Z"/>
    <path fill="none" stroke="rgb(0,0,0)" id="Drawing_6_0" stroke-linejoin="round" d="M 3998,2905 C 3974,2905 3954,2898 3933,2884 3912,2869 3897,2851 3885,2826 3873,2801 3868,2776 3868,2748 3868,2719 3873,2694 3885,2669 3897,2644 3912,2626 3933,2611 3954,2597 3974,2590 3998,2590 4022,2590 4042,2597 4063,2611 4084,2626 4099,2644 4111,2669 4123,2694 4128,2719 4128,2748 4128,2776 4123,2801 4111,2826 4099,2851 4084,2869 4063,2884 4042,2898 4022,2905 3998,2905 L 3998,2905 Z"/>
   </g>
  </g>
  <g>
   <path fill="none" stroke="rgb(255,51,51)" id="Drawing_7_0" stroke-linejoin="round" d="M 4128,2651 L 4319,2523"/>
   <path fill="rgb(255,51,51)" stroke="none" id="Drawing_7_1" d="M 4509,2397 L 4277,2460 4361,2587 4509,2397 Z"/>
  </g>
  <g id="DrawingGroup_2">
   <g>
    <path fill="rgb(0,0,0)" stroke="none" d="M 10415,3032 C 10333,3032 10263,3013 10192,2972 10121,2930 10070,2878 10030,2806 9989,2734 9970,2664 9970,2581 9970,2497 9989,2427 10030,2355 10070,2283 10121,2231 10192,2189 10263,2148 10333,2129 10415,2129 10496,2129 10566,2148 10637,2189 10708,2231 10759,2283 10799,2355 10840,2427 10859,2497 10859,2580 10859,2664 10840,2734 10799,2806 10759,2878 10708,2930 10637,2972 10566,3013 10496,3032 10415,3032 L 10415,3032 Z"/>
    <path fill="none" stroke="rgb(0,0,0)" id="Drawing_8_0" stroke-linejoin="round" d="M 10415,3032 C 10333,3032 10263,3013 10192,2972 10121,2930 10070,2878 10030,2806 9989,2734 9970,2664 9970,2581 9970,2497 9989,2427 10030,2355 10070,2283 10121,2231 10192,2189 10263,2148 10333,2129 10415,2129 10496,2129 10566,2148 10637,2189 10708,2231 10759,2283 10799,2355 10840,2427 10859,2497 10859,2580 10859,2664 10840,2734 10799,2806 10759,2878 10708,2930 10637,2972 10566,3013 10496,3032 10415,3032 L 10415,3032 Z"/>
   </g>
   <g>
    <path fill="rgb(255,255,255)" stroke="none" d="M 10348,2945 C 10324,2945 10304,2938 10283,2924 10262,2909 10247,2891 10235,2866 10223,2841 10218,2816 10218,2788 10218,2759 10223,2734 10235,2709 10247,2684 10262,2666 10283,2651 10304,2637 10324,2630 10348,2630 10372,2630 10392,2637 10413,2651 10434,2666 10449,2684 10461,2709 10473,2734 10478,2759 10478,2788 10478,2816 10473,2841 10461,2866 10449,2891 10434,2909 10413,2924 10392,2938 10372,2945 10348,2945 L 10348,2945 Z"/>
    <path fill="none" stroke="rgb(0,0,0)" id="Drawing_9_0" stroke-linejoin="round" d="M 10348,2945 C 10324,2945 10304,2938 10283,2924 10262,2909 10247,2891 10235,2866 10223,2841 10218,2816 10218,2788 10218,2759 10223,2734 10235,2709 10247,2684 10262,2666 10283,2651 10304,2637 10324,2630 10348,2630 10372,2630 10392,2637 10413,2651 10434,2666 10449,2684 10461,2709 10473,2734 10478,2759 10478,2788 10478,2816 10473,2841 10461,2866 10449,2891 10434,2909 10413,2924 10392,2938 10372,2945 10348,2945 L 10348,2945 Z"/>
   </g>
  </g>
  <g>
   <path fill="rgb(207,231,245)" stroke="none" d="M 15575,4429 L 12545,4429 12545,619 18604,619 18604,4429 15575,4429 Z"/>
   <path fill="none" stroke="rgb(128,128,128)" id="Drawing_10_0" stroke-linejoin="round" d="M 15575,4429 L 12545,4429 12545,619 18604,619 18604,4429 15575,4429 Z"/>
  </g>
  <g>
   <path fill="rgb(207,231,245)" stroke="none" d="M 15600,3618 L 13921,3618 13921,1462 17279,1462 17279,3618 15600,3618 Z"/>
   <path fill="none" stroke="rgb(128,128,128)" id="Drawing_11_0" stroke-linejoin="round" d="M 15600,3618 L 13921,3618 13921,1462 17279,1462 17279,3618 15600,3618 Z"/>
  </g>
  <g>
   <path fill="rgb(255,255,255)" stroke="none" d="M 13887,2698 C 13863,2698 13843,2691 13822,2677 13801,2662 13786,2644 13774,2619 13762,2594 13757,2569 13757,2541 13757,2512 13762,2487 13774,2462 13786,2437 13801,2419 13822,2404 13843,2390 13863,2383 13887,2383 13911,2383 13931,2390 13952,2404 13973,2419 13988,2437 14000,2462 14012,2487 14017,2512 14017,2541 14017,2569 14012,2594 14000,2619 13988,2644 13973,2662 13952,2677 13931,2691 13911,2698 13887,2698 L 13887,2698 Z"/>
   <path fill="none" stroke="rgb(0,0,0)" id="Drawing_12_0" stroke-linejoin="round" d="M 13887,2698 C 13863,2698 13843,2691 13822,2677 13801,2662 13786,2644 13774,2619 13762,2594 13757,2569 13757,2541 13757,2512 13762,2487 13774,2462 13786,2437 13801,2419 13822,2404 13843,2390 13863,2383 13887,2383 13911,2383 13931,2390 13952,2404 13973,2419 13988,2437 14000,2462 14012,2487 14017,2512 14017,2541 14017,2569 14012,2594 14000,2619 13988,2644 13973,2662 13952,2677 13931,2691 13911,2698 13887,2698 L 13887,2698 Z"/>
  </g>
  <g>
   <path fill="rgb(255,255,255)" stroke="none" d="M 17261,2698 C 17237,2698 17217,2691 17196,2677 17175,2662 17160,2644 17148,2619 17136,2594 17131,2569 17131,2541 17131,2512 17136,2487 17148,2462 17160,2437 17175,2419 17196,2404 17217,2390 17237,2383 17261,2383 17285,2383 17305,2390 17326,2404 17347,2419 17362,2437 17374,2462 17386,2487 17391,2512 17391,2541 17391,2569 17386,2594 17374,2619 17362,2644 17347,2662 17326,2677 17305,2691 17285,2698 17261,2698 L 17261,2698 Z"/>
   <path fill="none" stroke="rgb(0,0,0)" id="Drawing_13_0" stroke-linejoin="round" d="M 17261,2698 C 17237,2698 17217,2691 17196,2677 17175,2662 17160,2644 17148,2619 17136,2594 17131,2569 17131,2541 17131,2512 17136,2487 17148,2462 17160,2437 17175,2419 17196,2404 17217,2390 17237,2383 17261,2383 17285,2383 17305,2390 17326,2404 17347,2419 17362,2437 17374,2462 17386,2487 17391,2512 17391,2541 17391,2569 17386,2594 17374,2619 17362,2644 17347,2662 17326,2677 17305,2691 17285,2698 17261,2698 L 17261,2698 Z"/>
  </g>
  <g id="DrawingGroup_3">
   <g>
    <path fill="rgb(0,0,0)" stroke="none" d="M 12447,2992 C 12365,2992 12295,2973 12224,2932 12153,2890 12102,2838 12062,2766 12021,2694 12002,2624 12002,2541 12002,2457 12021,2387 12062,2315 12102,2243 12153,2191 12224,2149 12295,2108 12365,2089 12447,2089 12528,2089 12598,2108 12669,2149 12740,2191 12791,2243 12831,2315 12872,2387 12891,2457 12891,2540 12891,2624 12872,2694 12831,2766 12791,2838 12740,2890 12669,2932 12598,2973 12528,2992 12447,2992 L 12447,2992 Z"/>
    <path fill="none" stroke="rgb(0,0,0)" id="Drawing_14_0" stroke-linejoin="round" d="M 12447,2992 C 12365,2992 12295,2973 12224,2932 12153,2890 12102,2838 12062,2766 12021,2694 12002,2624 12002,2541 12002,2457 12021,2387 12062,2315 12102,2243 12153,2191 12224,2149 12295,2108 12365,2089 12447,2089 12528,2089 12598,2108 12669,2149 12740,2191 12791,2243 12831,2315 12872,2387 12891,2457 12891,2540 12891,2624 12872,2694 12831,2766 12791,2838 12740,2890 12669,2932 12598,2973 12528,2992 12447,2992 L 12447,2992 Z"/>
   </g>
   <g>
    <path fill="rgb(255,255,255)" stroke="none" d="M 12380,2905 C 12356,2905 12336,2898 12315,2884 12294,2869 12279,2851 12267,2826 12255,2801 12250,2776 12250,2748 12250,2719 12255,2694 12267,2669 12279,2644 12294,2626 12315,2611 12336,2597 12356,2590 12380,2590 12404,2590 12424,2597 12445,2611 12466,2626 12481,2644 12493,2669 12505,2694 12510,2719 12510,2748 12510,2776 12505,2801 12493,2826 12481,2851 12466,2869 12445,2884 12424,2898 12404,2905 12380,2905 L 12380,2905 Z"/>
    <path fill="none" stroke="rgb(0,0,0)" id="Drawing_15_0" stroke-linejoin="round" d="M 12380,2905 C 12356,2905 12336,2898 12315,2884 12294,2869 12279,2851 12267,2826 12255,2801 12250,2776 12250,2748 12250,2719 12255,2694 12267,2669 12279,2644 12294,2626 12315,2611 12336,2597 12356,2590 12380,2590 12404,2590 12424,2597 12445,2611 12466,2626 12481,2644 12493,2669 12505,2694 12510,2719 12510,2748 12510,2776 12505,2801 12493,2826 12481,2851 12466,2869 12445,2884 12424,2898 12404,2905 12380,2905 L 12380,2905 Z"/>
   </g>
  </g>
  <g>
   <path fill="none" stroke="rgb(255,51,51)" id="Drawing_16_0" stroke-linejoin="round" d="M 12510,2651 L 12701,2523"/>
   <path fill="rgb(255,51,51)" stroke="none" id="Drawing_16_1" d="M 12891,2397 L 12659,2460 12743,2587 12891,2397 Z"/>
  </g>
  <g id="DrawingGroup_4">
   <g>
    <path fill="rgb(0,0,0)" stroke="none" d="M 18797,3032 C 18715,3032 18645,3013 18574,2972 18503,2930 18452,2878 18412,2806 18371,2734 18352,2664 18352,2581 18352,2497 18371,2427 18412,2355 18452,2283 18503,2231 18574,2189 18645,2148 18715,2129 18797,2129 18878,2129 18948,2148 19019,2189 19090,2231 19141,2283 19181,2355 19222,2427 19241,2497 19241,2580 19241,2664 19222,2734 19181,2806 19141,2878 19090,2930 19019,2972 18948,3013 18878,3032 18797,3032 L 18797,3032 Z"/>
    <path fill="none" stroke="rgb(0,0,0)" id="Drawing_17_0" stroke-linejoin="round" d="M 18797,3032 C 18715,3032 18645,3013 18574,2972 18503,2930 18452,2878 18412,2806 18371,2734 18352,2664 18352,2581 18352,2497 18371,2427 18412,2355 18452,2283 18503,2231 18574,2189 18645,2148 18715,2129 18797,2129 18878,2129 18948,2148 19019,2189 19090,2231 19141,2283 19181,2355 19222,2427 19241,2497 19241,2580 19241,2664 19222,2734 19181,2806 19141,2878 19090,2930 19019,2972 18948,3013 18878,3032 18797,3032 L 18797,3032 Z"/>
   </g>
   <g>
    <path fill="rgb(255,255,255)" stroke="none" d="M 18730,2945 C 18706,2945 18686,2938 18665,2924 18644,2909 18629,2891 18617,2866 18605,2841 18600,2816 18600,2788 18600,2759 18605,2734 18617,2709 18629,2684 18644,2666 18665,2651 18686,2637 18706,2630 18730,2630 18754,2630 18774,2637 18795,2651 18816,2666 18831,2684 18843,2709 18855,2734 18860,2759 18860,2788 18860,2816 18855,2841 18843,2866 18831,2891 18816,2909 18795,2924 18774,2938 18754,2945 18730,2945 L 18730,2945 Z"/>
    <path fill="none" stroke="rgb(0,0,0)" id="Drawing_18_0" stroke-linejoin="round" d="M 18730,2945 C 18706,2945 18686,2938 18665,2924 18644,2909 18629,2891 18617,2866 18605,2841 18600,2816 18600,2788 18600,2759 18605,2734 18617,2709 18629,2684 18644,2666 18665,2651 18686,2637 18706,2630 18730,2630 18754,2630 18774,2637 18795,2651 18816,2666 18831,2684 18843,2709 18855,2734 18860,2759 18860,2788 18860,2816 18855,2841 18843,2866 18831,2891 18816,2909 18795,2924 18774,2938 18754,2945 18730,2945 L 18730,2945 Z"/>
   </g>
  </g>
  <g>
   <path fill="none" stroke="rgb(128,128,128)" id="Drawing_19_0" stroke-linejoin="round" d="M 2731,2524 L 3392,2524"/>
   <path fill="rgb(128,128,128)" stroke="none" id="Drawing_19_1" d="M 3620,2524 L 3392,2448 3392,2600 3620,2524 Z"/>
  </g>
  <g>
   <path fill="none" stroke="rgb(128,128,128)" id="Drawing_20_0" stroke-linejoin="round" d="M 10986,2524 L 11647,2524"/>
   <path fill="rgb(128,128,128)" stroke="none" id="Drawing_20_1" d="M 11875,2524 L 11647,2448 11647,2600 11875,2524 Z"/>
  </g>
  <g>
   <path fill="none" stroke="rgb(128,128,128)" id="Drawing_21_0" stroke-linejoin="round" d="M 19241,2524 L 19902,2524"/>
   <path fill="rgb(128,128,128)" stroke="none" id="Drawing_21_1" d="M 20130,2524 L 19902,2448 19902,2600 20130,2524 Z"/>
  </g>
 </g>
</svg>