<?xml version="1.0" encoding="UTF-8"?>

<svg version="1.2" baseProfile="tiny" width="215.9mm" height="279.4mm" viewBox="0 0 21590 27940" preserveAspectRatio="xMidYMid" fill-rule="evenodd" stroke-width="28.222" stroke-linejoin="round" xmlns="http://www.w3.org/2000/svg" xmlns:xlink="http://www.w3.org/1999/xlink" xml:space="preserve">
 <g visibility="visible" id="MasterSlide_1_Default">
  <desc>Master slide
  </desc>
  <rect fill="none" stroke="none" x="0" y="0" width="21590" height="27940"/>
 </g>
 <g visibility="visible" id="Slide_1_page1">
  <g id="DrawingGroup_1">
   <g>
    <path fill="rgb(207,231,245)" stroke="none" d="M 11075,15277 L 9038,15277 9038,13121 13112,13121 13112,15277 11075,15277 Z"/>
    <path fill="none" stroke="rgb(128,128,128)" id="Drawing_1_0" stroke-linejoin="round" d="M 11075,15277 L 9038,15277 9038,13121 13112,13121 13112,15277 11075,15277 Z"/>
   </g>
   <g>
    <path fill="rgb(255,255,255)" stroke="none" d="M 8998,14320 C 8969,14320 8944,14313 8919,14299 8894,14284 8876,14266 8861,14241 8847,14216 8840,14191 8840,14163 8840,14134 8847,14109 8861,14084 8876,14059 8894,14041 8919,14026 8944,14012 8969,14005 8998,14005 9026,14005 9051,14012 9076,14026 9101,14041 9119,14059 9134,14084 9148,14109 9155,14134 9155,14163 9155,14191 9148,14216 9134,14241 9119,14266 9101,14284 9076,14299 9051,14313 9026,14320 8998,14320 L 8998,14320 Z"/>
    <path fill="none" stroke="rgb(0,0,0)" id="Drawing_2_0" stroke-linejoin="round" d="M 8998,14320 C 8969,14320 8944,14313 8919,14299 8894,14284 8876,14266 8861,14241 8847,14216 8840,14191 8840,14163 8840,14134 8847,14109 8861,14084 8876,14059 8894,14041 8919,14026 8944,14012 8969,14005 8998,14005 9026,14005 9051,14012 9076,14026 9101,14041 9119,14059 9134,14084 9148,14109 9155,14134 9155,14163 9155,14191 9148,14216 9134,14241 9119,14266 9101,14284 9076,14299 9051,14313 9026,14320 8998,14320 L 8998,14320 Z"/>
   </g>
   <g>
    <path fill="rgb(255,255,255)" stroke="none" d="M 13090,14299 C 13061,14299 13036,14292 13011,14278 12986,14263 12968,14245 12953,14220 12939,14195 12932,14170 12932,14142 12932,14113 12939,14088 12953,14063 12968,14038 12986,14020 13011,14005 13036,13991 13061,13984 13090,13984 13118,13984 13143,13991 13168,14005 13193,14020 13211,14038 13226,14063 13240,14088 13247,14113 13247,14142 13247,14170 13240,14195 13226,14220 13211,14245 13193,14263 13168,14278 13143,14292 13118,14299 13090,14299 L 13090,14299 Z"/>
    <path fill="none" stroke="rgb(0,0,0)" id="Drawing_3_0" stroke-linejoin="round" d="M 13090,14299 C 13061,14299 13036,14292 13011,14278 12986,14263 12968,14245 12953,14220 12939,14195 12932,14170 12932,14142 12932,14113 12939,14088 12953,14063 12968,14038 12986,14020 13011,14005 13036,13991 13061,13984 13090,13984 13118,13984 13143,13991 13168,14005 13193,14020 13211,14038 13226,14063 13240,14088 13247,14113 13247,14142 13247,14170 13240,14195 13226,14220 13211,14245 13193,14263 13168,14278 13143,14292 13118,14299 13090,14299 L 13090,14299 Z"/>
   </g>
  </g>
 </g>
</svg>